<mxfile host="app.diagrams.net" agent="Mozilla/5.0 (Windows NT 10.0; Win64; x64) AppleWebKit/537.36 (KHTML, like Gecko) Chrome/131.0.0.0 Safari/537.36" version="24.8.9">
  <diagram id="C5RBs43oDa-KdzZeNtuy" name="Page-1">
    <mxGraphModel dx="1036" dy="515" grid="1" gridSize="10" guides="1" tooltips="1" connect="1" arrows="1" fold="1" page="1" pageScale="1" pageWidth="827" pageHeight="1169" math="0" shadow="0">
      <root>
        <mxCell id="WIyWlLk6GJQsqaUBKTNV-0" />
        <mxCell id="WIyWlLk6GJQsqaUBKTNV-1" parent="WIyWlLk6GJQsqaUBKTNV-0" />
        <mxCell id="S9V614PeW7jCttMCv8L--33" value="" style="edgeStyle=orthogonalEdgeStyle;rounded=0;orthogonalLoop=1;jettySize=auto;html=1;" parent="WIyWlLk6GJQsqaUBKTNV-1" source="S9V614PeW7jCttMCv8L--0" target="S9V614PeW7jCttMCv8L--2" edge="1">
          <mxGeometry relative="1" as="geometry" />
        </mxCell>
        <mxCell id="S9V614PeW7jCttMCv8L--0" value="mulai" style="rounded=0;whiteSpace=wrap;html=1;" parent="WIyWlLk6GJQsqaUBKTNV-1" vertex="1">
          <mxGeometry x="80" y="120" width="160" height="40" as="geometry" />
        </mxCell>
        <mxCell id="S9V614PeW7jCttMCv8L--34" value="" style="edgeStyle=orthogonalEdgeStyle;rounded=0;orthogonalLoop=1;jettySize=auto;html=1;" parent="WIyWlLk6GJQsqaUBKTNV-1" source="S9V614PeW7jCttMCv8L--2" target="S9V614PeW7jCttMCv8L--3" edge="1">
          <mxGeometry relative="1" as="geometry" />
        </mxCell>
        <mxCell id="S9V614PeW7jCttMCv8L--2" value="total buku = 10" style="rounded=0;whiteSpace=wrap;html=1;" parent="WIyWlLk6GJQsqaUBKTNV-1" vertex="1">
          <mxGeometry x="80" y="200" width="160" height="40" as="geometry" />
        </mxCell>
        <mxCell id="S9V614PeW7jCttMCv8L--35" value="" style="edgeStyle=orthogonalEdgeStyle;rounded=0;orthogonalLoop=1;jettySize=auto;html=1;" parent="WIyWlLk6GJQsqaUBKTNV-1" source="S9V614PeW7jCttMCv8L--3" target="S9V614PeW7jCttMCv8L--5" edge="1">
          <mxGeometry relative="1" as="geometry" />
        </mxCell>
        <mxCell id="S9V614PeW7jCttMCv8L--3" value="ibu memerintah baca semua buku" style="rounded=0;whiteSpace=wrap;html=1;" parent="WIyWlLk6GJQsqaUBKTNV-1" vertex="1">
          <mxGeometry x="80" y="270" width="160" height="40" as="geometry" />
        </mxCell>
        <mxCell id="fHb1bEJQ2xU_qOLyrlKQ-6" value="" style="edgeStyle=orthogonalEdgeStyle;rounded=0;orthogonalLoop=1;jettySize=auto;html=1;" edge="1" parent="WIyWlLk6GJQsqaUBKTNV-1" source="S9V614PeW7jCttMCv8L--4" target="fHb1bEJQ2xU_qOLyrlKQ-0">
          <mxGeometry relative="1" as="geometry" />
        </mxCell>
        <mxCell id="S9V614PeW7jCttMCv8L--4" value="total jumlah baca == total jumlah baca +1" style="rounded=0;whiteSpace=wrap;html=1;" parent="WIyWlLk6GJQsqaUBKTNV-1" vertex="1">
          <mxGeometry x="320" y="770" width="160" height="40" as="geometry" />
        </mxCell>
        <mxCell id="S9V614PeW7jCttMCv8L--7" value="" style="edgeStyle=orthogonalEdgeStyle;rounded=0;orthogonalLoop=1;jettySize=auto;html=1;" parent="WIyWlLk6GJQsqaUBKTNV-1" source="S9V614PeW7jCttMCv8L--5" target="S9V614PeW7jCttMCv8L--6" edge="1">
          <mxGeometry relative="1" as="geometry" />
        </mxCell>
        <mxCell id="S9V614PeW7jCttMCv8L--5" value="buku yang dibaca = 0" style="rounded=0;whiteSpace=wrap;html=1;" parent="WIyWlLk6GJQsqaUBKTNV-1" vertex="1">
          <mxGeometry x="80" y="380" width="160" height="40" as="geometry" />
        </mxCell>
        <mxCell id="S9V614PeW7jCttMCv8L--13" style="edgeStyle=orthogonalEdgeStyle;rounded=0;orthogonalLoop=1;jettySize=auto;html=1;entryX=0;entryY=0.5;entryDx=0;entryDy=0;" parent="WIyWlLk6GJQsqaUBKTNV-1" source="S9V614PeW7jCttMCv8L--6" target="S9V614PeW7jCttMCv8L--4" edge="1">
          <mxGeometry relative="1" as="geometry" />
        </mxCell>
        <mxCell id="S9V614PeW7jCttMCv8L--19" value="tidak" style="edgeLabel;html=1;align=center;verticalAlign=middle;resizable=0;points=[];" parent="S9V614PeW7jCttMCv8L--13" vertex="1" connectable="0">
          <mxGeometry x="-0.3733" y="1" relative="1" as="geometry">
            <mxPoint as="offset" />
          </mxGeometry>
        </mxCell>
        <mxCell id="S9V614PeW7jCttMCv8L--39" value="belum" style="edgeLabel;html=1;align=center;verticalAlign=middle;resizable=0;points=[];" parent="S9V614PeW7jCttMCv8L--13" vertex="1" connectable="0">
          <mxGeometry x="-0.4359" relative="1" as="geometry">
            <mxPoint as="offset" />
          </mxGeometry>
        </mxCell>
        <mxCell id="S9V614PeW7jCttMCv8L--15" value="" style="edgeStyle=orthogonalEdgeStyle;rounded=0;orthogonalLoop=1;jettySize=auto;html=1;" parent="WIyWlLk6GJQsqaUBKTNV-1" source="S9V614PeW7jCttMCv8L--6" target="S9V614PeW7jCttMCv8L--14" edge="1">
          <mxGeometry relative="1" as="geometry" />
        </mxCell>
        <mxCell id="S9V614PeW7jCttMCv8L--20" value="sudah" style="edgeLabel;html=1;align=center;verticalAlign=middle;resizable=0;points=[];" parent="S9V614PeW7jCttMCv8L--15" vertex="1" connectable="0">
          <mxGeometry x="-0.2037" y="1" relative="1" as="geometry">
            <mxPoint as="offset" />
          </mxGeometry>
        </mxCell>
        <mxCell id="S9V614PeW7jCttMCv8L--6" value="jumlah buku yang &lt;br&gt;dibaca == total buku" style="rhombus;whiteSpace=wrap;html=1;rounded=0;" parent="WIyWlLk6GJQsqaUBKTNV-1" vertex="1">
          <mxGeometry x="82.5" y="720" width="155" height="140" as="geometry" />
        </mxCell>
        <mxCell id="S9V614PeW7jCttMCv8L--17" value="" style="edgeStyle=orthogonalEdgeStyle;rounded=0;orthogonalLoop=1;jettySize=auto;html=1;entryX=0.5;entryY=0;entryDx=0;entryDy=0;" parent="WIyWlLk6GJQsqaUBKTNV-1" source="S9V614PeW7jCttMCv8L--14" target="S9V614PeW7jCttMCv8L--18" edge="1">
          <mxGeometry relative="1" as="geometry">
            <mxPoint x="160" y="1044" as="targetPoint" />
          </mxGeometry>
        </mxCell>
        <mxCell id="S9V614PeW7jCttMCv8L--14" value="melaporkan buku&amp;nbsp; telah dibaca semua" style="whiteSpace=wrap;html=1;rounded=0;" parent="WIyWlLk6GJQsqaUBKTNV-1" vertex="1">
          <mxGeometry x="80" y="920" width="160" height="40" as="geometry" />
        </mxCell>
        <mxCell id="S9V614PeW7jCttMCv8L--18" value="selesai" style="whiteSpace=wrap;html=1;rounded=0;" parent="WIyWlLk6GJQsqaUBKTNV-1" vertex="1">
          <mxGeometry x="80" y="1040" width="160" height="40" as="geometry" />
        </mxCell>
        <mxCell id="fHb1bEJQ2xU_qOLyrlKQ-13" style="edgeStyle=orthogonalEdgeStyle;rounded=0;orthogonalLoop=1;jettySize=auto;html=1;entryX=1;entryY=0.5;entryDx=0;entryDy=0;" edge="1" parent="WIyWlLk6GJQsqaUBKTNV-1" source="S9V614PeW7jCttMCv8L--37" target="fHb1bEJQ2xU_qOLyrlKQ-10">
          <mxGeometry relative="1" as="geometry">
            <Array as="points">
              <mxPoint x="960" y="620" />
            </Array>
          </mxGeometry>
        </mxCell>
        <mxCell id="S9V614PeW7jCttMCv8L--37" value="total buku yang dibaca dan dipahami =&amp;nbsp; total buku yang sudah dibaca dan pahami +1" style="whiteSpace=wrap;html=1;rounded=0;" parent="WIyWlLk6GJQsqaUBKTNV-1" vertex="1">
          <mxGeometry x="900" y="740" width="140" height="100" as="geometry" />
        </mxCell>
        <mxCell id="fHb1bEJQ2xU_qOLyrlKQ-2" value="" style="edgeStyle=orthogonalEdgeStyle;rounded=0;orthogonalLoop=1;jettySize=auto;html=1;" edge="1" parent="WIyWlLk6GJQsqaUBKTNV-1" source="fHb1bEJQ2xU_qOLyrlKQ-0" target="fHb1bEJQ2xU_qOLyrlKQ-1">
          <mxGeometry relative="1" as="geometry" />
        </mxCell>
        <mxCell id="fHb1bEJQ2xU_qOLyrlKQ-0" value="baca 1 buku yang belum dibaca dan pahami" style="rounded=0;whiteSpace=wrap;html=1;" vertex="1" parent="WIyWlLk6GJQsqaUBKTNV-1">
          <mxGeometry x="530" y="770" width="160" height="40" as="geometry" />
        </mxCell>
        <mxCell id="fHb1bEJQ2xU_qOLyrlKQ-3" value="" style="edgeStyle=orthogonalEdgeStyle;rounded=0;orthogonalLoop=1;jettySize=auto;html=1;" edge="1" parent="WIyWlLk6GJQsqaUBKTNV-1" source="fHb1bEJQ2xU_qOLyrlKQ-1" target="S9V614PeW7jCttMCv8L--37">
          <mxGeometry relative="1" as="geometry" />
        </mxCell>
        <mxCell id="fHb1bEJQ2xU_qOLyrlKQ-4" value="ya" style="edgeLabel;html=1;align=center;verticalAlign=middle;resizable=0;points=[];" vertex="1" connectable="0" parent="fHb1bEJQ2xU_qOLyrlKQ-3">
          <mxGeometry x="0.0546" y="4" relative="1" as="geometry">
            <mxPoint as="offset" />
          </mxGeometry>
        </mxCell>
        <mxCell id="fHb1bEJQ2xU_qOLyrlKQ-7" style="edgeStyle=orthogonalEdgeStyle;rounded=0;orthogonalLoop=1;jettySize=auto;html=1;entryX=0.5;entryY=1;entryDx=0;entryDy=0;" edge="1" parent="WIyWlLk6GJQsqaUBKTNV-1" source="fHb1bEJQ2xU_qOLyrlKQ-1" target="fHb1bEJQ2xU_qOLyrlKQ-0">
          <mxGeometry relative="1" as="geometry">
            <Array as="points">
              <mxPoint x="790" y="900" />
              <mxPoint x="610" y="900" />
            </Array>
          </mxGeometry>
        </mxCell>
        <mxCell id="fHb1bEJQ2xU_qOLyrlKQ-8" value="tidak" style="edgeLabel;html=1;align=center;verticalAlign=middle;resizable=0;points=[];" vertex="1" connectable="0" parent="fHb1bEJQ2xU_qOLyrlKQ-7">
          <mxGeometry x="-0.1534" y="1" relative="1" as="geometry">
            <mxPoint x="-28" as="offset" />
          </mxGeometry>
        </mxCell>
        <mxCell id="fHb1bEJQ2xU_qOLyrlKQ-1" value="paham" style="rhombus;whiteSpace=wrap;html=1;rounded=0;" vertex="1" parent="WIyWlLk6GJQsqaUBKTNV-1">
          <mxGeometry x="747" y="750" width="80" height="80" as="geometry" />
        </mxCell>
        <mxCell id="fHb1bEJQ2xU_qOLyrlKQ-12" style="edgeStyle=orthogonalEdgeStyle;rounded=0;orthogonalLoop=1;jettySize=auto;html=1;entryX=0.5;entryY=0;entryDx=0;entryDy=0;" edge="1" parent="WIyWlLk6GJQsqaUBKTNV-1" source="fHb1bEJQ2xU_qOLyrlKQ-10" target="S9V614PeW7jCttMCv8L--6">
          <mxGeometry relative="1" as="geometry" />
        </mxCell>
        <mxCell id="fHb1bEJQ2xU_qOLyrlKQ-15" style="edgeStyle=orthogonalEdgeStyle;rounded=0;orthogonalLoop=1;jettySize=auto;html=1;entryX=1;entryY=0.5;entryDx=0;entryDy=0;" edge="1" parent="WIyWlLk6GJQsqaUBKTNV-1" source="fHb1bEJQ2xU_qOLyrlKQ-10" target="fHb1bEJQ2xU_qOLyrlKQ-17">
          <mxGeometry relative="1" as="geometry">
            <Array as="points">
              <mxPoint x="455" y="500" />
              <mxPoint x="1180" y="500" />
              <mxPoint x="1180" y="1060" />
            </Array>
          </mxGeometry>
        </mxCell>
        <mxCell id="fHb1bEJQ2xU_qOLyrlKQ-16" value="tidak" style="edgeLabel;html=1;align=center;verticalAlign=middle;resizable=0;points=[];" vertex="1" connectable="0" parent="fHb1bEJQ2xU_qOLyrlKQ-15">
          <mxGeometry x="0.4617" relative="1" as="geometry">
            <mxPoint as="offset" />
          </mxGeometry>
        </mxCell>
        <mxCell id="fHb1bEJQ2xU_qOLyrlKQ-10" value="total jumlah baca &amp;lt; jumlah buku *2&amp;nbsp;" style="rhombus;whiteSpace=wrap;html=1;rounded=0;" vertex="1" parent="WIyWlLk6GJQsqaUBKTNV-1">
          <mxGeometry x="410" y="550" width="90" height="140" as="geometry" />
        </mxCell>
        <mxCell id="fHb1bEJQ2xU_qOLyrlKQ-18" style="edgeStyle=orthogonalEdgeStyle;rounded=0;orthogonalLoop=1;jettySize=auto;html=1;entryX=1;entryY=0.5;entryDx=0;entryDy=0;" edge="1" parent="WIyWlLk6GJQsqaUBKTNV-1" source="fHb1bEJQ2xU_qOLyrlKQ-17" target="S9V614PeW7jCttMCv8L--18">
          <mxGeometry relative="1" as="geometry" />
        </mxCell>
        <mxCell id="fHb1bEJQ2xU_qOLyrlKQ-17" value="melaporkan kepada ibu bahwa&amp;nbsp; tidak semua buku bisa di paham&amp;nbsp;" style="whiteSpace=wrap;html=1;rounded=0;" vertex="1" parent="WIyWlLk6GJQsqaUBKTNV-1">
          <mxGeometry x="610" y="1020" width="170" height="80" as="geometry" />
        </mxCell>
      </root>
    </mxGraphModel>
  </diagram>
</mxfile>
